<?xml version="1.0" encoding="UTF-8"?>
<svg xmlns="http://www.w3.org/2000/svg" xmlns:xlink="http://www.w3.org/1999/xlink" width="61px" height="61px" viewBox="0 0 61 61" version="1.1">
<g id="surface1">
<path style=" stroke:none;fill-rule:evenodd;fill:rgb(80%,80%,80%);fill-opacity:1;" d="M 59.085938 2.742188 C 54.894531 31.425781 29.160156 45.355469 2.292969 48.523438 C 1.832031 48.578125 1.5 48.996094 1.554688 49.460938 C 1.609375 49.921875 2.027344 50.25 2.488281 50.199219 C 30.109375 46.941406 56.445312 32.472656 60.75 2.984375 C 60.816406 2.523438 60.5 2.097656 60.039062 2.03125 C 59.578125 1.964844 59.152344 2.28125 59.085938 2.742188 Z M 59.085938 2.742188 "/>
<path style=" stroke:none;fill-rule:evenodd;fill:rgb(80%,80%,80%);fill-opacity:1;" d="M 2.894531 49.300781 C 4.089844 48.429688 5.601562 47.347656 5.769531 47.21875 C 10.320312 43.765625 14.09375 39.785156 17.414062 35.117188 C 17.683594 34.738281 17.59375 34.214844 17.214844 33.945312 C 16.835938 33.675781 16.3125 33.761719 16.039062 34.140625 C 12.820312 38.667969 9.164062 42.527344 4.75 45.878906 C 4.492188 46.074219 1.09375 48.5 0.441406 49.042969 C 0.175781 49.261719 0.0898438 49.472656 0.078125 49.523438 C 0.00390625 49.730469 0.015625 49.957031 0.113281 50.152344 C 0.195312 50.328125 0.402344 50.578125 0.800781 50.703125 C 1.21875 50.835938 2.152344 50.898438 2.386719 50.929688 C 5.914062 51.453125 9.894531 51.730469 13.519531 52.734375 C 16.976562 53.691406 20.113281 55.308594 22.125 58.554688 C 22.367188 58.953125 22.886719 59.074219 23.285156 58.828125 C 23.679688 58.582031 23.800781 58.0625 23.554688 57.667969 C 21.308594 54.039062 17.832031 52.179688 13.96875 51.109375 C 10.367188 50.113281 6.421875 49.808594 2.894531 49.300781 Z M 2.894531 49.300781 "/>
</g>
</svg>
